<svg width="185" height="198" viewBox="0 0 185 198" fill="none" xmlns="http://www.w3.org/2000/svg">
<g clip-path="url(#clip0_4_7)">
<path d="M17.6444 78.4129C33.3929 127.856 67.669 172.409 86.7748 192.881C89.6502 195.962 94.1934 196.76 97.8046 194.587C137.173 170.902 179.393 100.741 184.144 87.9129C189.144 74.4129 118.144 17.9129 64.1444 6.41292C10.1444 -5.08708 -3.85564 10.9129 17.6444 78.4129Z" fill="url(#paint0_linear_4_7)"/>
</g>
<path fill-rule="evenodd" clip-rule="evenodd" d="M158.324 83.6541L149.766 79.0435C150.066 79.9883 150.455 80.9648 150.932 81.9727C153.332 87.038 157.031 90.2473 159.679 89.9231L159.691 89.982L171.337 88.4032C167.392 86.9027 163.713 82.0107 161.355 77.035C160.635 75.5154 160 73.9556 159.45 72.3558L160.467 71.874C161.017 73.4739 161.652 75.0336 162.372 76.5532C165.252 82.6316 170.151 88.3735 174.818 87.7129L174.813 87.932L176.014 87.7692C168.483 76.7033 147.581 59.3367 123.334 45.1196C123.769 55.8744 126.804 65.3252 133.635 68.9913L133.609 69.0403L148.998 77.3069L149.281 77.1731C149.302 77.28 149.325 77.3873 149.349 77.495L158.727 82.533L158.324 83.6541ZM133.075 70.0509L148.462 78.3407C148.89 79.8017 149.398 81.3616 149.915 82.4545C151.468 85.7323 153.878 89.1343 156.799 90.374L144.453 92.0476L144.42 91.8802C143.028 92.2291 141.186 90.311 139.866 87.5251C138.906 85.4989 138.321 83.6056 138.604 82.2313L137.332 82.8335C137.544 84.5939 138.129 86.4872 138.849 88.0068C139.689 89.7797 141.023 91.9386 142.64 92.7232C141.355 93.9523 140.549 96.1945 139.998 98.3163C139.701 100.318 139.764 103.079 140.484 104.598C137.581 105.043 133.994 107.983 132.546 110.84C132.277 111.587 132.093 112.294 131.994 112.961C130.258 111.924 127.744 111.874 125.724 112.21C123.585 112.294 121.177 113.124 120.011 114.607C119.691 113.931 119.162 113.252 118.423 112.568C116.461 110.397 112.359 108.309 109.457 108.753L109.202 108.874C109.619 107.126 109.048 104.605 108.088 102.579C107.368 101.06 106.274 99.4072 104.792 98.2489L103.521 98.8511C104.763 99.5028 106.111 101.035 107.071 103.061C108.391 105.847 108.454 108.608 107.423 109.717L98.6563 118.067C99.2622 115.134 98.1695 111.211 96.648 107.999C96.0197 106.672 95.1976 105.438 94.2711 104.046L94.2709 104.046C94.136 103.843 93.999 103.637 93.86 103.428L92.8431 103.909C93.9019 105.268 94.8313 106.792 95.6311 108.48C97.9087 113.288 98.3798 117.834 96.773 119.861L88.0667 128.154C89.0112 124.076 87.8823 118.407 85.5821 113.551L82.6741 108.727L81.6572 109.208C82.6265 110.817 83.5111 112.465 84.311 114.153C87.1905 120.232 88.7846 127.539 85.3169 130.732L85.3356 130.755L77.3434 138.368C78.5645 134.46 77.8534 129.151 76.1964 124.111L76.3013 124.061C73.1818 117.476 76.3894 109.135 79.54 103.301C88.6032 86.2929 108.575 70.6295 122.952 68.7805C126.822 68.1878 130.164 68.6719 132.978 70.2328L133.075 70.0509ZM107.423 109.717L108.411 110.489C108.67 110.159 109.094 109.959 109.682 109.887C111.702 109.55 115.684 111.385 117.646 113.556C118.431 114.169 118.895 114.934 118.979 115.724L116.741 127.916C116.313 127.084 115.647 126.168 114.741 125.166C110.719 121.233 104.083 118.234 99.6683 118.705L108.157 110.609L107.423 109.717ZM122.244 44.4838C122.513 53.2846 124.483 61.3953 128.727 66.4177L120.161 61.8158L120.221 61.7015C113.786 58.3712 111.161 48.8677 111.149 38.4052C114.897 40.3369 118.606 42.3736 122.244 44.4838ZM128.111 67.3766L119.635 62.81L119.564 62.943C117.248 61.5592 114.325 61.0833 110.795 61.5155C97.9291 63.2688 80.5134 77.101 72.3756 92.1198C69.7509 97.08 67.0693 104.542 69.8125 110.364L69.8224 110.385L71.4175 113.752L70.1463 114.354L67.5218 108.772C61.8015 101.307 46.829 99.5001 33.5337 101.156C35.0108 104.856 36.5872 108.512 38.2439 112.112C51.8616 110.801 66.3046 112.981 73.3646 119.966C73.2857 119.794 73.2059 119.623 73.1251 119.452C72.3253 117.764 71.3559 116.156 70.2171 114.628L71.4882 114.026C72.3513 115.458 73.1472 116.921 73.8759 118.417C73.7174 113.806 75.2685 108.577 78.2974 102.649C87.6149 85.5207 107.976 69.3631 122.981 67.5266C124.805 67.2602 126.515 67.2102 128.111 67.3766ZM110.14 37.8878C110.072 46.3335 111.637 54.2848 115.455 59.288L106.904 54.6944L106.927 54.6649C100.922 51.4194 98.7095 42.3078 99.0314 32.6038C102.747 34.2417 106.46 36.0129 110.14 37.8878ZM115.16 60.3991L106.21 55.5773L106.15 55.6532C104.164 54.5268 101.615 54.1838 98.503 54.6242C87.657 56.041 72.5436 68.1623 65.4655 80.8185C63.2281 85.2865 60.8282 91.3793 63.2172 96.4419L63.2236 96.4554L67.5227 105.53C67.4181 101.466 68.7186 96.7647 71.5072 91.6008C79.525 76.3288 97.4492 62.2558 110.569 60.382C112.196 60.2272 113.726 60.2329 115.16 60.3991ZM97.8115 32.0709C97.4976 39.8048 98.7427 47.3259 102.13 52.1303L92.3178 46.8591C87.9326 43.4546 86.4186 35.7039 86.8119 27.7248C90.4566 29.0204 94.1334 30.4787 97.8115 32.0709ZM102.084 53.3548L92.7562 48.3292L92.7356 48.3634C91.0788 47.4943 88.9489 47.1596 86.3456 47.3591C77.0107 48.6803 64.4538 58.9703 58.5554 69.5171C56.5859 73.239 54.7078 78.4659 56.7403 82.7697L56.7447 82.779L61.1388 92.0546C61.0397 88.6313 62.1125 84.6846 64.5971 80.2995C71.4352 67.1368 87.1771 55.0279 98.5316 53.3702C99.8068 53.2141 100.991 53.209 102.084 53.3548ZM85.7875 27.3647C85.3781 34.2228 86.3598 40.9207 89.3666 45.2738L79.4178 39.9295C75.5844 37.2456 74.2784 30.7173 74.667 24.0087C78.3143 24.93 82.0323 26.0592 85.7875 27.3647ZM89.0132 46.3127L78.8436 40.8338C77.5403 40.246 76.0285 40.0839 74.3082 40.3474C66.7385 41.4525 56.364 49.7784 51.7652 58.4691C50.3566 60.9325 48.9284 64.2545 49.3611 67.1928L54.5248 78.093C54.7165 75.3643 55.7496 72.3954 57.4328 69.1186C63.4654 58.1981 76.785 47.5469 86.2399 46.4789C87.1666 46.3245 88.091 46.2691 89.0132 46.3127ZM73.6372 23.7537C73.2533 29.2518 73.9359 34.7452 76.1311 38.164L66.4131 32.9436L66.4298 32.9159C63.3462 31.3462 62.2545 26.5547 62.446 21.5119C65.0442 21.9422 67.7645 22.4611 70.6079 23.0642C71.6114 23.2771 72.6214 23.5071 73.6372 23.7537ZM75.7076 39.1443L65.3143 33.5449C64.3634 33.235 63.2641 33.2054 62.0166 33.4561C56.0922 34.0919 48.2742 40.5864 44.6009 47.2882C43.6581 48.9739 42.6972 51.4604 42.9615 53.6839L48.2111 64.7652C48.4168 62.6567 49.1873 60.3408 50.5226 57.8173C55.6298 48.8858 66.2586 40.4395 74.0825 39.2139C74.6512 39.1779 75.1929 39.1547 75.7076 39.1443ZM61.3304 21.3313C61.1757 25.0276 61.8296 28.6621 63.3139 31.2788L52.9792 25.7272L53.0156 25.6261C51.4923 24.8271 50.5636 22.8145 50.3332 20.1103C53.7101 20.2944 57.3748 20.7067 61.3304 21.3313ZM62.8027 32.1918L52.6264 26.7093L52.6128 26.7472C51.7844 26.3127 50.8665 26.1273 49.8591 26.1911C45.8201 26.8641 40.1843 31.3945 37.6907 35.9869C37.0957 37.2016 36.4926 38.7709 36.5873 40.2285L41.9001 51.4432C42.1096 49.92 42.6804 48.2776 43.6125 46.516C47.54 39.6938 55.8665 32.9584 61.7909 32.3226C62.1375 32.2529 62.4748 32.2093 62.8027 32.1918ZM49.2168 20.0574C49.3496 21.5455 49.6382 22.9771 50.1465 24.2055L42.5592 20.1298C44.6325 19.9846 46.8514 19.9624 49.2168 20.0574ZM49.5794 25.0677L40.7207 20.2951C37.7026 20.6296 35.02 21.2522 32.6691 22.1833C31.8927 22.9775 31.2225 23.8506 30.7806 24.6856C30.1966 25.7892 30.0144 26.7025 30.2339 27.4254L30.4693 27.3139L35.5788 38.0996C35.815 37.2671 36.2295 36.3899 36.8224 35.468C39.4392 30.5227 45.2909 25.89 49.5794 25.0677ZM55.5647 83.338L59.8004 92.3478C53.3309 87.3241 41.5939 86.2412 30.985 87.5397C30.2441 87.6478 29.5003 87.7693 28.7559 87.9038L28.6933 87.7085C27.5096 84.0067 26.4452 80.4774 25.5011 77.1158C26.8249 76.8476 28.1572 76.6319 29.4765 76.4704C40.3225 75.0535 52.2341 76.543 55.4736 83.3812L55.5647 83.338ZM49.0068 69.389L53.6525 79.2708C48.4111 74.8708 38.2971 73.9769 29.2508 75.3369C27.9026 75.4892 26.5401 75.7049 25.1851 75.9802C24.1166 72.1067 23.2117 68.46 22.4719 65.0324C24.2417 64.5502 26.0684 64.1708 27.8765 63.8939C36.4488 62.934 46.3552 64.133 48.8747 69.4516L49.0068 69.389ZM42.5682 55.6936L47.4178 66.0091C43.0928 62.6205 34.8874 61.9587 27.6508 62.7604C25.8504 63.0233 24.0187 63.4061 22.2322 63.9021C21.4014 59.9107 20.8011 56.2238 20.4337 52.8286C22.2657 52.2603 24.2225 51.8738 26.1423 51.6911C32.8294 50.694 40.4762 51.723 42.3959 55.7753L42.5682 55.6936ZM36.1295 41.9983L41.1659 52.7111C37.662 50.1202 31.3762 49.7163 26.1709 50.4372C24.2019 50.6485 22.2001 51.0809 20.3187 51.6959C19.9063 47.3375 19.8932 43.4763 20.2849 40.0836C21.5638 39.6597 23.0011 39.3281 24.5424 39.1146C30.0925 38.346 34.7172 39.5663 35.917 42.0989L36.1295 41.9983ZM29.5716 28.0492L34.8498 39.2762C32.0946 37.7319 27.8802 37.4609 24.3167 37.9811C23.0505 38.166 21.7258 38.448 20.4507 38.8339C21.2269 33.6757 23.0084 29.6701 25.8163 26.7051C27.4407 26.8732 28.6674 27.4526 29.0639 28.2898L29.5716 28.0492ZM61.1451 95.208L66.003 105.541C58.9447 99.789 45.4261 98.5416 33.0964 100.052C31.6686 96.4173 30.3378 92.7408 29.122 89.0323C29.8193 88.9022 30.5162 88.7825 31.2107 88.6732C42.8402 87.1674 56.2163 88.7897 61.1451 95.208ZM38.8097 113.333C53.9219 112.031 69.8914 114.698 74.9297 123.85C77.295 130.63 77.868 137.755 74.3911 141.18L66.5422 148.656C69.004 142.349 66.5411 132.494 62.7019 124.39C61.902 122.702 61.0174 121.053 60.0481 119.445L59.0312 119.927C60.0005 121.535 60.8851 123.183 61.685 124.872C66.2442 134.496 68.6068 146.711 63.211 151.748L63.2484 151.794L61.6704 153.297C59.9548 150.76 58.2405 148.149 56.5395 145.471C55.7175 140.235 53.8855 134.691 51.516 129.689C50.7161 128.001 49.8315 126.352 48.8622 124.744L47.8453 125.226C48.6452 126.914 49.5298 128.563 50.4991 130.171C52.4209 134.228 53.9693 138.612 54.9 142.863C49.1869 133.673 43.6692 123.742 38.8097 113.333ZM30.2183 23.3319C29.0138 23.9946 27.9171 24.7603 26.9275 25.6328C27.7172 25.7768 28.465 26.0254 29.1067 26.4089C29.2057 25.7418 29.3895 25.0345 29.658 24.2871C29.8195 23.9686 30.0076 23.649 30.2183 23.3319ZM66.3997 160.106C70.4824 165.831 74.509 171.098 78.3156 175.814C84.9501 179.222 91.1977 183.655 95.9445 188.649C97.1773 189.968 98.2727 191.304 99.2229 192.64C100.017 192.437 100.792 192.113 101.528 191.663C102.731 190.928 103.936 190.145 105.143 189.318C105.203 184.505 101.884 179.956 98.7293 176.786C90.5338 168.148 77.0889 161.366 66.3997 160.106ZM90.5324 189.974C87.4597 186.672 83.9724 182.706 80.236 178.169C85.7875 181.297 90.9678 185.137 95.0475 189.384C96.0029 190.441 96.9929 191.61 97.9293 192.866C95.2402 193.121 92.4912 192.079 90.5324 189.974ZM173.596 89.2798L176.724 88.8577C178.656 91.9585 179.422 94.4966 178.775 96.238C177.514 99.6272 173.329 107.474 167.146 117.403C165.053 114.094 164.913 108.195 165.918 103.093C167.079 97.1968 169.804 90.8151 173.596 89.2798ZM159.233 91.2176L170.93 89.6395C167.978 92.4393 165.807 97.876 164.915 102.948C163.643 108.106 164.05 114.038 166.202 117.831L155.867 112.28L155.903 112.179C153.418 110.875 152.515 106.341 153.646 100.844C154.449 95.9205 156.808 92.0796 159.233 91.2176ZM144.137 93.2545L156.408 91.5989C154.276 93.8286 152.986 97.5619 152.269 100.566C151.859 103.805 151.831 107.851 153.034 110.758L142.427 105.06L142.489 104.889C141.246 104.237 140.675 101.717 141.375 98.5944C141.765 95.9622 142.916 93.9236 144.131 93.2262L144.137 93.2545ZM141.998 105.98C141.523 105.827 141.009 105.784 140.455 105.852C138.316 105.935 134.982 108.755 133.668 111.238C133.084 112.342 132.902 113.255 133.122 113.978L133.357 113.866L138.466 124.652C138.703 123.82 139.117 122.942 139.71 122.021C142.327 117.075 148.179 112.442 152.467 111.62L141.998 105.98ZM155.514 113.262L155.5 113.3C154.672 112.865 153.754 112.68 152.747 112.744C148.708 113.417 143.072 117.947 140.578 122.539C139.983 123.754 139.38 125.323 139.475 126.781L144.788 137.996C144.997 136.473 145.568 134.83 146.5 133.069C150.428 126.246 158.754 119.511 164.679 118.875C165.025 118.805 165.362 118.762 165.69 118.744L155.514 113.262ZM89.0699 128.814L97.2186 121.042L97.2311 121.057C97.829 120.567 98.5917 120.206 99.5191 119.973C103.678 119.553 110.28 122.318 113.965 126.154C115.193 127.433 116.407 129.339 116.11 131.34L116.112 131.34L114.073 142.448C113.403 140.91 112.314 139.389 110.806 137.884C105.652 132.263 95.5631 128.049 89.6387 128.685C89.4406 128.725 89.251 128.768 89.0699 128.814ZM78.1257 139.252L86.5192 131.246C87.4336 130.566 88.4639 130.13 89.6102 129.939C95.5345 129.303 104.875 133.251 110.029 138.872C111.614 140.523 113.466 142.736 113.592 145.072L111.401 157.006C110.622 154.9 109.237 152.81 107.244 150.735C100.248 143.196 87.4194 137.799 79.5955 139.025C79.0851 139.057 78.5951 139.133 78.1257 139.252ZM67.4548 149.429L75.7459 141.521C76.7972 140.718 78.1556 140.263 79.8212 140.158C87.3909 139.053 99.4711 144.184 106.347 151.47C108.561 153.653 111.085 157.081 110.737 160.624L108.736 171.522C107.897 168.83 106.126 166.002 103.562 163.333C94.8439 154.128 79.2758 147.549 69.6866 148.99C68.9001 149.122 68.1562 149.268 67.4548 149.429ZM62.35 154.298L64.7756 151.984C66.1274 151.047 67.8396 150.427 69.9123 150.124C79.2473 148.803 94.0669 155.117 102.665 164.068C105.362 167.132 108.778 171.715 107.796 176.212L107.873 176.228L105.98 186.538C105.349 183.071 103.231 179.576 99.6262 176.051C91.0186 166.765 76.6124 159.783 65.5026 158.841C64.4537 157.356 63.4019 155.841 62.35 154.298ZM107.111 186.419C109.685 183.036 113.947 180.259 118.934 178.154C123.969 173.495 128.931 168.308 133.716 162.862C133.264 162.911 132.813 162.964 132.364 163.023C121.772 164.319 110.346 169.112 109.173 176.49L108.953 176.446L107.111 186.419ZM109.751 172.128C113.653 166.693 123.208 162.898 132.138 161.889C133.037 161.754 133.946 161.641 134.859 161.552C137.875 158.073 140.817 154.499 143.656 150.898C139.769 150.028 135.096 149.961 130.764 150.446C122.058 151.78 112.92 155.489 111.774 161.613L111.7 161.586L109.751 172.128ZM112.429 157.641C115.803 153.272 123.415 150.353 130.538 149.313C135.197 148.797 140.256 148.887 144.424 149.921C145.41 148.661 146.384 147.398 147.344 146.135L145.498 142.226L145.284 142.328C143.364 138.276 135.717 137.247 129.03 138.244C122.506 138.864 115.554 141.839 114.524 146.303L112.429 157.641ZM115.112 143.118C117.778 139.905 123.547 137.581 129.059 136.99C134.3 136.264 140.636 136.678 144.125 139.317L139.039 128.541L138.805 128.651C137.605 126.119 132.98 124.898 127.43 125.667C121.88 126.436 117.678 128.736 117.367 131.365L117.285 131.363L115.112 143.118ZM117.865 128.226C120.021 126.215 123.821 125.028 127.204 124.534C130.78 124.012 135.012 124.286 137.767 125.845L132.46 114.602L131.952 114.842C131.352 113.576 128.852 112.899 125.95 113.344C122.971 113.627 120.698 114.858 120.098 116.112L120.103 116.114L117.865 128.226ZM148.143 145.079L145.849 140.236C145.585 138.013 146.546 135.526 147.489 133.841C151.162 127.139 158.98 120.644 164.904 120.009C165.134 119.963 165.358 119.926 165.577 119.899C160.712 127.568 154.771 136.293 148.143 145.079ZM115.964 180.832C112.61 182.599 109.85 184.72 108.129 187.188C110.744 185.248 113.361 183.117 115.964 180.832Z" fill="url(#paint1_linear_4_7)"/>
<path d="M121 4C116.2 3.2 108.333 1 105 0C83 32.4 81.8333 108.167 84 142H100C97.6 57.2 113 14.6667 121 4Z" fill="url(#paint2_linear_4_7)"/>
<g filter="url(#filter0_d_4_7)">
<path d="M58.5 87.5C66 73.2895 77.3333 118.94 83.5 142.44L99 141.94C99 124.74 89.6667 98.1065 85 86.9399C65.5 46.9399 50.5 85 43.5 110.44C39 126.794 39.6667 122.607 39 117.94C34.2 89.1398 18.3333 80.2732 11 79.4398C28.5 110.44 27.0209 114 35 136.94C42.2906 157.9 48.1766 107.06 58.5 87.5Z" fill="url(#paint3_linear_4_7)"/>
</g>
<path d="M150.046 103C142.046 104.6 128.713 104.667 123.046 104.5C154.246 126.9 171.38 107.5 176.046 95C166.046 106.2 154.546 105 150.046 103Z" fill="url(#paint4_linear_4_7)"/>
<path d="M140.546 39C114.946 46.2 112.546 77.6666 114.546 92.5C120.546 89.7 129.38 87.6666 133.046 87C129.546 59 158.546 53 154.546 73.5C151.346 89.9 126.546 96.6666 114.546 98C137.546 99.5 162.546 96 173.546 77.5C184.546 59 172.546 30 140.546 39Z" fill="url(#paint5_linear_4_7)"/>
<defs>
<filter id="filter0_d_4_7" x="0" y="58.5416" width="110" height="94.8982" filterUnits="userSpaceOnUse" color-interpolation-filters="sRGB">
<feFlood flood-opacity="0" result="BackgroundImageFix"/>
<feColorMatrix in="SourceAlpha" type="matrix" values="0 0 0 0 0 0 0 0 0 0 0 0 0 0 0 0 0 0 127 0" result="hardAlpha"/>
<feOffset/>
<feGaussianBlur stdDeviation="5.5"/>
<feComposite in2="hardAlpha" operator="out"/>
<feColorMatrix type="matrix" values="0 0 0 0 0 0 0 0 0 0 0 0 0 0 0 0 0 0 0.25 0"/>
<feBlend mode="normal" in2="BackgroundImageFix" result="effect1_dropShadow_4_7"/>
<feBlend mode="normal" in="SourceGraphic" in2="effect1_dropShadow_4_7" result="shape"/>
</filter>
<linearGradient id="paint0_linear_4_7" x1="40" y1="576.5" x2="94.6636" y2="27.1133" gradientUnits="userSpaceOnUse">
<stop stop-color="#5D666A"/>
<stop offset="1" stop-color="#313637"/>
</linearGradient>
<linearGradient id="paint1_linear_4_7" x1="14.7084" y1="33.9453" x2="77.391" y2="169.172" gradientUnits="userSpaceOnUse">
<stop stop-color="#5D666A"/>
<stop offset="1" stop-color="#202222"/>
</linearGradient>
<linearGradient id="paint2_linear_4_7" x1="102.763" y1="160.775" x2="120.473" y2="19.5264" gradientUnits="userSpaceOnUse">
<stop stop-color="#2279B7"/>
<stop offset="1" stop-color="#45C1ED"/>
</linearGradient>
<linearGradient id="paint3_linear_4_7" x1="70.5" y1="138" x2="55" y2="79" gradientUnits="userSpaceOnUse">
<stop stop-color="#2279B7"/>
<stop offset="1" stop-color="#45C1ED"/>
</linearGradient>
<linearGradient id="paint4_linear_4_7" x1="158" y1="111.5" x2="156.856" y2="98.0548" gradientUnits="userSpaceOnUse">
<stop stop-color="#2276B6"/>
<stop offset="1" stop-color="#34B4E3"/>
</linearGradient>
<linearGradient id="paint5_linear_4_7" x1="142.5" y1="94.5" x2="148.719" y2="44.8435" gradientUnits="userSpaceOnUse">
<stop stop-color="#2279B7"/>
<stop offset="1" stop-color="#45C1ED"/>
</linearGradient>
<clipPath id="clip0_4_7">
<rect width="176.394" height="194.913" fill="white" transform="translate(8 3)"/>
</clipPath>
</defs>
</svg>
