<svg width="690" height="198" viewBox="0 0 690 198" fill="none" xmlns="http://www.w3.org/2000/svg">
<g clip-path="url(#clip0_4_40)">
<path d="M17.6444 78.4129C33.3929 127.856 67.669 172.409 86.7748 192.881C89.6502 195.962 94.1934 196.76 97.8046 194.587C137.173 170.902 179.393 100.741 184.144 87.9129C189.144 74.4129 118.144 17.9129 64.1444 6.41292C10.1444 -5.08708 -3.85564 10.9129 17.6444 78.4129Z" fill="url(#paint0_linear_4_40)"/>
</g>
<path fill-rule="evenodd" clip-rule="evenodd" d="M158.324 83.6541L149.766 79.0435C150.066 79.9883 150.455 80.9648 150.932 81.9727C153.332 87.038 157.031 90.2473 159.679 89.9231L159.691 89.982L171.337 88.4032C167.392 86.9027 163.713 82.0107 161.355 77.035C160.635 75.5154 160 73.9556 159.45 72.3558L160.467 71.874C161.017 73.4739 161.652 75.0336 162.372 76.5532C165.252 82.6316 170.151 88.3735 174.818 87.7129L174.813 87.932L176.014 87.7692C168.483 76.7033 147.581 59.3367 123.334 45.1196C123.769 55.8744 126.804 65.3252 133.635 68.9913L133.609 69.0403L148.998 77.3069L149.281 77.1731C149.302 77.28 149.325 77.3873 149.349 77.495L158.727 82.533L158.324 83.6541ZM133.075 70.0509L148.462 78.3407C148.89 79.8017 149.398 81.3616 149.915 82.4545C151.468 85.7323 153.878 89.1343 156.799 90.374L144.453 92.0476L144.42 91.8802C143.028 92.2291 141.186 90.311 139.866 87.5251C138.906 85.4989 138.321 83.6056 138.604 82.2313L137.332 82.8335C137.544 84.5939 138.129 86.4872 138.849 88.0068C139.689 89.7797 141.023 91.9386 142.64 92.7232C141.355 93.9523 140.549 96.1945 139.998 98.3163C139.701 100.318 139.764 103.079 140.484 104.598C137.581 105.043 133.994 107.983 132.546 110.84C132.277 111.587 132.093 112.294 131.994 112.961C130.258 111.924 127.744 111.874 125.724 112.21C123.585 112.294 121.177 113.124 120.011 114.607C119.691 113.931 119.162 113.252 118.423 112.568C116.461 110.397 112.359 108.309 109.457 108.753L109.202 108.874C109.619 107.126 109.048 104.605 108.088 102.579C107.368 101.06 106.274 99.4072 104.792 98.2489L103.521 98.8511C104.763 99.5028 106.111 101.035 107.071 103.061C108.391 105.847 108.454 108.608 107.423 109.717L98.6563 118.067C99.2622 115.134 98.1695 111.211 96.648 107.999C96.0197 106.672 95.1976 105.438 94.2711 104.046L94.2709 104.046C94.136 103.843 93.999 103.637 93.86 103.428L92.8431 103.909C93.9019 105.268 94.8313 106.792 95.6311 108.48C97.9087 113.288 98.3798 117.834 96.773 119.861L88.0667 128.154C89.0112 124.076 87.8823 118.407 85.5821 113.551L82.6741 108.727L81.6572 109.208C82.6265 110.817 83.5111 112.465 84.311 114.153C87.1905 120.232 88.7846 127.539 85.3169 130.732L85.3356 130.755L77.3434 138.368C78.5645 134.46 77.8534 129.151 76.1964 124.111L76.3013 124.061C73.1818 117.476 76.3894 109.135 79.54 103.301C88.6032 86.2929 108.575 70.6295 122.952 68.7805C126.822 68.1878 130.164 68.6719 132.978 70.2328L133.075 70.0509ZM107.423 109.717L108.411 110.489C108.67 110.159 109.094 109.959 109.682 109.887C111.702 109.55 115.684 111.385 117.646 113.556C118.431 114.169 118.895 114.934 118.979 115.724L116.741 127.916C116.313 127.084 115.647 126.168 114.741 125.166C110.719 121.233 104.083 118.234 99.6683 118.705L108.157 110.609L107.423 109.717ZM122.244 44.4838C122.513 53.2846 124.483 61.3953 128.727 66.4177L120.161 61.8158L120.221 61.7015C113.786 58.3712 111.161 48.8677 111.149 38.4052C114.897 40.3369 118.606 42.3736 122.244 44.4838ZM128.111 67.3766L119.635 62.81L119.564 62.943C117.248 61.5592 114.325 61.0833 110.795 61.5155C97.9291 63.2688 80.5134 77.101 72.3756 92.1198C69.7509 97.08 67.0693 104.542 69.8125 110.364L69.8224 110.385L71.4175 113.752L70.1463 114.354L67.5218 108.772C61.8015 101.307 46.829 99.5001 33.5337 101.156C35.0108 104.856 36.5872 108.512 38.2439 112.112C51.8616 110.801 66.3046 112.981 73.3646 119.966C73.2857 119.794 73.2059 119.623 73.1251 119.452C72.3253 117.764 71.3559 116.156 70.2171 114.628L71.4882 114.026C72.3513 115.458 73.1472 116.921 73.8759 118.417C73.7174 113.806 75.2685 108.577 78.2974 102.649C87.6149 85.5207 107.976 69.3631 122.981 67.5266C124.805 67.2602 126.515 67.2102 128.111 67.3766ZM110.14 37.8878C110.072 46.3335 111.637 54.2848 115.455 59.288L106.904 54.6944L106.927 54.6649C100.922 51.4194 98.7095 42.3078 99.0314 32.6038C102.747 34.2417 106.46 36.0129 110.14 37.8878ZM115.16 60.3991L106.21 55.5773L106.15 55.6532C104.164 54.5268 101.615 54.1838 98.503 54.6242C87.657 56.041 72.5436 68.1623 65.4655 80.8185C63.2281 85.2865 60.8282 91.3793 63.2172 96.4419L63.2236 96.4554L67.5227 105.53C67.4181 101.466 68.7186 96.7647 71.5072 91.6008C79.525 76.3288 97.4492 62.2558 110.569 60.382C112.196 60.2272 113.726 60.2329 115.16 60.3991ZM97.8115 32.0709C97.4976 39.8048 98.7427 47.3259 102.13 52.1303L92.3178 46.8591C87.9326 43.4546 86.4186 35.7039 86.8119 27.7248C90.4566 29.0204 94.1334 30.4787 97.8115 32.0709ZM102.084 53.3548L92.7562 48.3292L92.7356 48.3634C91.0788 47.4943 88.9489 47.1596 86.3456 47.3591C77.0107 48.6803 64.4538 58.9703 58.5554 69.5171C56.5859 73.239 54.7078 78.4659 56.7403 82.7697L56.7447 82.779L61.1388 92.0546C61.0397 88.6313 62.1125 84.6846 64.5971 80.2995C71.4352 67.1368 87.1771 55.0279 98.5316 53.3702C99.8068 53.2141 100.991 53.209 102.084 53.3548ZM85.7875 27.3647C85.3781 34.2228 86.3598 40.9207 89.3666 45.2738L79.4178 39.9295C75.5844 37.2456 74.2784 30.7173 74.667 24.0087C78.3143 24.93 82.0323 26.0592 85.7875 27.3647ZM89.0132 46.3127L78.8436 40.8338C77.5403 40.246 76.0285 40.0839 74.3082 40.3474C66.7385 41.4525 56.364 49.7784 51.7652 58.4691C50.3566 60.9325 48.9284 64.2545 49.3611 67.1928L54.5248 78.093C54.7165 75.3643 55.7496 72.3954 57.4328 69.1186C63.4654 58.1981 76.785 47.5469 86.2399 46.4789C87.1666 46.3245 88.091 46.2691 89.0132 46.3127ZM73.6372 23.7537C73.2533 29.2518 73.9359 34.7452 76.1311 38.164L66.4131 32.9436L66.4298 32.9159C63.3462 31.3462 62.2545 26.5547 62.446 21.5119C65.0442 21.9422 67.7645 22.4611 70.6079 23.0642C71.6114 23.2771 72.6214 23.5071 73.6372 23.7537ZM75.7076 39.1443L65.3143 33.5449C64.3634 33.235 63.2641 33.2054 62.0166 33.4561C56.0922 34.0919 48.2742 40.5864 44.6009 47.2882C43.6581 48.9739 42.6972 51.4604 42.9615 53.6839L48.2111 64.7652C48.4168 62.6567 49.1873 60.3408 50.5226 57.8173C55.6298 48.8858 66.2586 40.4395 74.0825 39.2139C74.6512 39.1779 75.1929 39.1547 75.7076 39.1443ZM61.3304 21.3313C61.1757 25.0276 61.8296 28.6621 63.3139 31.2788L52.9792 25.7272L53.0156 25.6261C51.4923 24.8271 50.5636 22.8145 50.3332 20.1103C53.7101 20.2944 57.3748 20.7067 61.3304 21.3313ZM62.8027 32.1918L52.6264 26.7093L52.6128 26.7472C51.7844 26.3127 50.8665 26.1273 49.8591 26.1911C45.8201 26.8641 40.1843 31.3945 37.6907 35.9869C37.0957 37.2016 36.4926 38.7709 36.5873 40.2285L41.9001 51.4432C42.1096 49.92 42.6804 48.2776 43.6125 46.516C47.54 39.6938 55.8665 32.9584 61.7909 32.3226C62.1375 32.2529 62.4748 32.2093 62.8027 32.1918ZM49.2168 20.0574C49.3496 21.5455 49.6382 22.9771 50.1465 24.2055L42.5592 20.1298C44.6325 19.9846 46.8514 19.9624 49.2168 20.0574ZM49.5794 25.0677L40.7207 20.2951C37.7026 20.6296 35.02 21.2522 32.6691 22.1833C31.8927 22.9775 31.2225 23.8506 30.7806 24.6856C30.1966 25.7892 30.0144 26.7025 30.2339 27.4254L30.4693 27.3139L35.5788 38.0996C35.815 37.2671 36.2295 36.3899 36.8224 35.468C39.4392 30.5227 45.2909 25.89 49.5794 25.0677ZM55.5647 83.338L59.8004 92.3478C53.3309 87.3241 41.5939 86.2412 30.985 87.5397C30.2441 87.6478 29.5003 87.7693 28.7559 87.9038L28.6933 87.7085C27.5096 84.0067 26.4452 80.4774 25.5011 77.1158C26.8249 76.8476 28.1572 76.6319 29.4765 76.4704C40.3225 75.0535 52.2341 76.543 55.4736 83.3812L55.5647 83.338ZM49.0068 69.389L53.6525 79.2708C48.4111 74.8708 38.2971 73.9769 29.2508 75.3369C27.9026 75.4892 26.5401 75.7049 25.1851 75.9802C24.1166 72.1067 23.2117 68.46 22.4719 65.0324C24.2417 64.5502 26.0684 64.1708 27.8765 63.8939C36.4488 62.934 46.3552 64.133 48.8747 69.4516L49.0068 69.389ZM42.5682 55.6936L47.4178 66.0091C43.0928 62.6205 34.8874 61.9587 27.6508 62.7604C25.8504 63.0233 24.0187 63.4061 22.2322 63.9021C21.4014 59.9107 20.8011 56.2238 20.4337 52.8286C22.2657 52.2603 24.2225 51.8738 26.1423 51.6911C32.8294 50.694 40.4762 51.723 42.3959 55.7753L42.5682 55.6936ZM36.1295 41.9983L41.1659 52.7111C37.662 50.1202 31.3762 49.7163 26.1709 50.4372C24.2019 50.6485 22.2001 51.0809 20.3187 51.6959C19.9063 47.3375 19.8932 43.4763 20.2849 40.0836C21.5638 39.6597 23.0011 39.3281 24.5424 39.1146C30.0925 38.346 34.7172 39.5663 35.917 42.0989L36.1295 41.9983ZM29.5716 28.0492L34.8498 39.2762C32.0946 37.7319 27.8802 37.4609 24.3167 37.9811C23.0505 38.166 21.7258 38.448 20.4507 38.8339C21.2269 33.6757 23.0084 29.6701 25.8163 26.7051C27.4407 26.8732 28.6674 27.4526 29.0639 28.2898L29.5716 28.0492ZM61.1451 95.208L66.003 105.541C58.9447 99.789 45.4261 98.5416 33.0964 100.052C31.6686 96.4173 30.3378 92.7408 29.122 89.0323C29.8193 88.9022 30.5162 88.7825 31.2107 88.6732C42.8402 87.1674 56.2163 88.7897 61.1451 95.208ZM38.8097 113.333C53.9219 112.031 69.8914 114.698 74.9297 123.85C77.295 130.63 77.868 137.755 74.3911 141.18L66.5422 148.656C69.004 142.349 66.5411 132.494 62.7019 124.39C61.902 122.702 61.0174 121.053 60.0481 119.445L59.0312 119.927C60.0005 121.535 60.8851 123.183 61.685 124.872C66.2442 134.496 68.6068 146.711 63.211 151.748L63.2484 151.794L61.6704 153.297C59.9548 150.76 58.2405 148.149 56.5395 145.471C55.7175 140.235 53.8855 134.691 51.516 129.689C50.7161 128.001 49.8315 126.352 48.8622 124.744L47.8453 125.226C48.6452 126.914 49.5298 128.563 50.4991 130.171C52.4209 134.228 53.9693 138.612 54.9 142.863C49.1869 133.673 43.6692 123.742 38.8097 113.333ZM30.2183 23.3319C29.0138 23.9946 27.9171 24.7603 26.9275 25.6328C27.7172 25.7768 28.465 26.0254 29.1067 26.4089C29.2057 25.7418 29.3895 25.0345 29.658 24.2871C29.8195 23.9686 30.0076 23.649 30.2183 23.3319ZM66.3997 160.106C70.4824 165.831 74.509 171.098 78.3156 175.814C84.9501 179.222 91.1977 183.655 95.9445 188.649C97.1773 189.968 98.2727 191.304 99.2229 192.64C100.017 192.437 100.792 192.113 101.528 191.663C102.731 190.928 103.936 190.145 105.143 189.318C105.203 184.505 101.884 179.956 98.7293 176.786C90.5338 168.148 77.0889 161.366 66.3997 160.106ZM90.5324 189.974C87.4597 186.672 83.9724 182.706 80.236 178.169C85.7875 181.297 90.9678 185.137 95.0475 189.384C96.0029 190.441 96.9929 191.61 97.9293 192.866C95.2402 193.121 92.4912 192.079 90.5324 189.974ZM173.596 89.2798L176.724 88.8577C178.656 91.9585 179.422 94.4966 178.775 96.238C177.514 99.6272 173.329 107.474 167.146 117.403C165.053 114.094 164.913 108.195 165.918 103.093C167.079 97.1968 169.804 90.8151 173.596 89.2798ZM159.233 91.2176L170.93 89.6395C167.978 92.4393 165.807 97.876 164.915 102.948C163.643 108.106 164.05 114.038 166.202 117.831L155.867 112.28L155.903 112.179C153.418 110.875 152.515 106.341 153.646 100.844C154.449 95.9205 156.808 92.0796 159.233 91.2176ZM144.137 93.2545L156.408 91.5989C154.276 93.8286 152.986 97.5619 152.269 100.566C151.859 103.805 151.831 107.851 153.034 110.758L142.427 105.06L142.489 104.889C141.246 104.237 140.675 101.717 141.375 98.5944C141.765 95.9622 142.916 93.9236 144.131 93.2262L144.137 93.2545ZM141.998 105.98C141.523 105.827 141.009 105.784 140.455 105.852C138.316 105.935 134.982 108.755 133.668 111.238C133.084 112.342 132.902 113.255 133.122 113.978L133.357 113.866L138.466 124.652C138.703 123.82 139.117 122.942 139.71 122.021C142.327 117.075 148.179 112.442 152.467 111.62L141.998 105.98ZM155.514 113.262L155.5 113.3C154.672 112.865 153.754 112.68 152.747 112.744C148.708 113.417 143.072 117.947 140.578 122.539C139.983 123.754 139.38 125.323 139.475 126.781L144.788 137.996C144.997 136.473 145.568 134.83 146.5 133.069C150.428 126.246 158.754 119.511 164.679 118.875C165.025 118.805 165.362 118.762 165.69 118.744L155.514 113.262ZM89.0699 128.814L97.2186 121.042L97.2311 121.057C97.829 120.567 98.5917 120.206 99.5191 119.973C103.678 119.553 110.28 122.318 113.965 126.154C115.193 127.433 116.407 129.339 116.11 131.34L116.112 131.34L114.073 142.448C113.403 140.91 112.314 139.389 110.806 137.884C105.652 132.263 95.5631 128.049 89.6387 128.685C89.4406 128.725 89.251 128.768 89.0699 128.814ZM78.1257 139.252L86.5192 131.246C87.4336 130.566 88.4639 130.13 89.6102 129.939C95.5345 129.303 104.875 133.251 110.029 138.872C111.614 140.523 113.466 142.736 113.592 145.072L111.401 157.006C110.622 154.9 109.237 152.81 107.244 150.735C100.248 143.196 87.4194 137.799 79.5955 139.025C79.0851 139.057 78.5951 139.133 78.1257 139.252ZM67.4548 149.429L75.7459 141.521C76.7972 140.718 78.1556 140.263 79.8212 140.158C87.3909 139.053 99.4711 144.184 106.347 151.47C108.561 153.653 111.085 157.081 110.737 160.624L108.736 171.522C107.897 168.83 106.126 166.002 103.562 163.333C94.8439 154.128 79.2758 147.549 69.6866 148.99C68.9001 149.122 68.1562 149.268 67.4548 149.429ZM62.35 154.298L64.7756 151.984C66.1274 151.047 67.8396 150.427 69.9123 150.124C79.2473 148.803 94.0669 155.117 102.665 164.068C105.362 167.132 108.778 171.715 107.796 176.212L107.873 176.228L105.98 186.538C105.349 183.071 103.231 179.576 99.6262 176.051C91.0186 166.765 76.6124 159.783 65.5026 158.841C64.4537 157.356 63.4019 155.841 62.35 154.298ZM107.111 186.419C109.685 183.036 113.947 180.259 118.934 178.154C123.969 173.495 128.931 168.308 133.716 162.862C133.264 162.911 132.813 162.964 132.364 163.023C121.772 164.319 110.346 169.112 109.173 176.49L108.953 176.446L107.111 186.419ZM109.751 172.128C113.653 166.693 123.208 162.898 132.138 161.889C133.037 161.754 133.946 161.641 134.859 161.552C137.875 158.073 140.817 154.499 143.656 150.898C139.769 150.028 135.096 149.961 130.764 150.446C122.058 151.78 112.92 155.489 111.774 161.613L111.7 161.586L109.751 172.128ZM112.429 157.641C115.803 153.272 123.415 150.353 130.538 149.313C135.197 148.797 140.256 148.887 144.424 149.921C145.41 148.661 146.384 147.398 147.344 146.135L145.498 142.226L145.284 142.328C143.364 138.276 135.717 137.247 129.03 138.244C122.506 138.864 115.554 141.839 114.524 146.303L112.429 157.641ZM115.112 143.118C117.778 139.905 123.547 137.581 129.059 136.99C134.3 136.264 140.636 136.678 144.125 139.317L139.039 128.541L138.805 128.651C137.605 126.119 132.98 124.898 127.43 125.667C121.88 126.436 117.678 128.736 117.367 131.365L117.285 131.363L115.112 143.118ZM117.865 128.226C120.021 126.215 123.821 125.028 127.204 124.534C130.78 124.012 135.012 124.286 137.767 125.845L132.46 114.602L131.952 114.842C131.352 113.576 128.852 112.899 125.95 113.344C122.971 113.627 120.698 114.858 120.098 116.112L120.103 116.114L117.865 128.226ZM148.143 145.079L145.849 140.236C145.585 138.013 146.546 135.526 147.489 133.841C151.162 127.139 158.98 120.644 164.904 120.009C165.134 119.963 165.358 119.926 165.577 119.899C160.712 127.568 154.771 136.293 148.143 145.079ZM115.964 180.832C112.61 182.599 109.85 184.72 108.129 187.188C110.744 185.248 113.361 183.117 115.964 180.832Z" fill="url(#paint1_linear_4_40)"/>
<path d="M121 4C116.2 3.2 108.333 1 105 0C83 32.4 81.8333 108.167 84 142H100C97.6 57.2 113 14.6667 121 4Z" fill="url(#paint2_linear_4_40)"/>
<g filter="url(#filter0_d_4_40)">
<path d="M58.5 87.5C66 73.2895 77.3333 118.94 83.5 142.44L99 141.94C99 124.74 89.6667 98.1065 85 86.9399C65.5 46.9399 50.5 85 43.5 110.44C39 126.794 39.6667 122.607 39 117.94C34.2 89.1398 18.3333 80.2732 11 79.4398C28.5 110.44 27.0209 114 35 136.94C42.2906 157.9 48.1766 107.06 58.5 87.5Z" fill="url(#paint3_linear_4_40)"/>
</g>
<path d="M150.046 103C142.046 104.6 128.713 104.667 123.046 104.5C154.246 126.9 171.38 107.5 176.046 95C166.046 106.2 154.546 105 150.046 103Z" fill="url(#paint4_linear_4_40)"/>
<path d="M140.546 39C114.946 46.2 112.546 77.6666 114.546 92.5C120.546 89.7 129.38 87.6666 133.046 87C129.546 59 158.546 53 154.546 73.5C151.346 89.9 126.546 96.6666 114.546 98C137.546 99.5 162.546 96 173.546 77.5C184.546 59 172.546 30 140.546 39Z" fill="url(#paint5_linear_4_40)"/>
<path d="M284.117 57.6979H272.922L259.675 102.663L244.189 57.6979H234.954L219.748 102.85L205.848 57.6979H194.093L214.43 123H223.946L239.432 77.5684L255.384 123H264.806L284.117 57.6979ZM320.976 107.514C317.804 111.805 313.42 113.951 308.009 113.951C303.811 113.951 300.359 113.018 297.654 110.966C294.855 109.007 293.269 106.115 292.896 102.383H328.906C329.279 99.4913 329.465 97.2523 329.465 95.5731C329.465 88.9496 327.32 83.6322 323.028 79.5275C318.737 75.4228 313.233 73.3704 306.703 73.3704C298.867 73.3704 292.71 75.7959 288.325 80.4604C283.94 85.2181 281.795 91.2819 281.795 98.6517C281.795 106.301 284.127 112.458 288.885 117.03C293.642 121.601 299.986 123.84 307.822 123.84C316.032 123.84 322.562 120.574 327.506 113.951L320.976 107.514ZM306.236 82.9792C309.688 82.9792 312.487 83.9121 314.632 85.5912C316.685 87.3637 317.991 89.8825 318.457 93.1476H292.989C293.642 89.9758 295.135 87.5503 297.467 85.6845C299.706 83.9121 302.691 82.9792 306.236 82.9792ZM337.146 115.35C339.665 118.149 342.93 120.201 346.848 121.694C350.766 123.187 354.871 123.84 359.256 123.84C366.905 123.84 372.969 121.507 377.634 116.843C382.205 112.179 384.537 105.928 384.537 97.9054C384.537 90.6288 382.485 84.6584 378.567 80.1805C374.555 75.7027 368.958 73.3704 361.868 73.3704C355.991 73.3704 351.326 75.2362 347.781 78.8745V54.8993H337.146V115.35ZM359.909 83.259C364.013 83.259 367.372 84.6584 369.797 87.2704C372.223 89.9758 373.529 93.7074 373.529 98.4651C373.529 103.409 372.223 107.234 369.611 109.94C366.999 112.645 363.64 113.951 359.536 113.951C354.311 113.951 350.393 112.458 347.781 109.473V90.7221C348.901 88.5765 350.58 86.804 352.819 85.4047C354.964 84.0053 357.297 83.259 359.909 83.259Z" fill="#313636"/>
<path d="M429.114 107.514C425.943 111.805 421.558 113.951 416.147 113.951C411.949 113.951 408.498 113.018 405.792 110.966C402.994 109.007 401.408 106.115 401.034 102.383H437.044C437.417 99.4913 437.604 97.2523 437.604 95.5731C437.604 88.9496 435.458 83.6322 431.167 79.5275C426.875 75.4228 421.371 73.3704 414.841 73.3704C407.005 73.3704 400.848 75.7959 396.463 80.4604C392.079 85.2181 389.933 91.2819 389.933 98.6517C389.933 106.301 392.265 112.458 397.023 117.03C401.781 121.601 408.124 123.84 415.961 123.84C424.17 123.84 430.7 120.574 435.645 113.951L429.114 107.514ZM414.375 82.9792C417.826 82.9792 420.625 83.9121 422.771 85.5912C424.823 87.3637 426.129 89.8825 426.596 93.1476H401.128C401.781 89.9758 403.273 87.5503 405.606 85.6845C407.845 83.9121 410.83 82.9792 414.375 82.9792ZM440.62 84.3785H449.016V106.115C449.016 111.805 450.322 116.097 453.121 119.082C455.826 122.067 459.558 123.56 464.316 123.56C467.487 123.56 470.473 122.813 473.085 121.321C475.697 119.828 477.749 117.962 479.148 115.537L472.805 109.566C470.659 112.365 468.327 113.671 465.901 113.671C463.663 113.671 461.983 112.925 461.05 111.339C460.118 109.753 459.651 107.048 459.651 103.13V84.3785H475.324V74.4899H459.651V64.508H449.016V74.4899H440.62V84.3785ZM483.821 123H494.456V91.3751C495.575 88.9496 497.254 86.9906 499.307 85.498C501.359 84.0986 503.691 83.3523 506.303 83.3523C510.315 83.3523 513.3 84.3785 515.166 86.4308C517.032 88.4832 518.058 91.8416 518.058 96.3194V123H528.693V95.6664C528.693 80.9268 521.976 73.4637 508.542 73.4637C502.572 73.4637 497.907 75.2362 494.456 78.6879V54.8993H483.821V123ZM539.233 123H549.868V74.4899H539.233V123ZM538.3 60.5899C538.3 62.2691 538.86 63.6684 539.979 64.7879C541.099 65.9073 542.685 66.3738 544.55 66.3738C546.23 66.3738 547.722 65.9073 548.935 64.7879C550.054 63.6684 550.707 62.2691 550.707 60.5899C550.707 59.0973 550.054 57.7912 548.935 56.6718C547.722 55.5523 546.23 54.9926 544.55 54.9926C542.778 54.9926 541.285 55.5523 540.072 56.5785C538.86 57.6979 538.3 59.004 538.3 60.5899ZM597.749 107.048C594.67 111.712 590.566 113.951 585.528 113.951C580.677 113.951 576.759 112.552 573.774 109.66C570.788 106.768 569.389 103.13 569.389 98.6517C569.389 94.1738 570.788 90.4423 573.587 87.5503C576.386 84.7517 579.931 83.259 584.409 83.259C589.446 83.259 593.644 85.4047 596.816 89.6027L604.746 84.3785C603.066 81.1134 600.454 78.5013 596.723 76.449C592.991 74.3966 588.793 73.3704 583.942 73.3704C576.293 73.3704 570.135 75.7959 565.471 80.5537C560.713 85.4047 558.381 91.3751 558.381 98.6517C558.381 106.301 560.713 112.365 565.564 116.936C570.322 121.601 576.666 123.84 584.502 123.84C588.793 123.84 592.898 122.813 596.723 120.761C600.454 118.709 603.346 115.723 605.305 111.899L597.749 107.048ZM639.084 109.193C639.084 110.872 638.244 112.085 636.752 112.832C635.259 113.578 633.393 113.951 631.154 113.951C627.982 113.951 625.091 113.298 622.292 111.805C619.493 110.406 617.348 108.634 616.042 106.395L607.646 112.179C609.418 115.63 612.31 118.429 616.321 120.574C620.24 122.813 624.904 123.84 630.128 123.84C635.819 123.84 640.576 122.627 644.401 120.108C648.133 117.683 650.092 113.951 650.092 109.1C650.092 106.488 649.346 104.156 647.853 102.103C646.36 100.051 644.588 98.5584 642.442 97.4389C640.203 96.4127 637.871 95.4798 635.352 94.547C632.833 93.6141 630.501 92.9611 628.356 92.4013C626.117 91.8416 624.344 91.1886 622.852 90.349C621.359 89.6027 620.706 88.6698 620.706 87.6436C620.706 84.7517 623.038 83.259 627.889 83.259C634.046 83.259 638.711 85.1248 641.976 88.8564L649.252 81.953C647.573 79.6208 644.868 77.5684 641.323 75.8892C637.684 74.21 633.766 73.3704 629.662 73.3704C623.411 73.3704 618.56 74.6765 615.015 77.2886C611.47 79.9006 609.698 83.3523 609.698 87.8302C609.698 90.9087 610.631 93.5208 612.683 95.6664C614.735 97.9054 617.161 99.4913 620.053 100.517C622.945 101.637 625.837 102.57 628.729 103.316C631.527 104.062 633.953 104.902 636.005 105.835C638.058 106.768 639.084 107.887 639.084 109.193Z" fill="#1EADE6"/>
<path d="M213.952 134.699H216.353L222.476 149.937L228.587 134.699H231L223.4 153.39H221.526L213.952 134.699ZM213.169 134.699H215.288L215.634 146.099V153.39H213.169V134.699ZM229.652 134.699H231.77V153.39H229.305V146.099L229.652 134.699ZM241.312 146.599V146.304C241.312 145.303 241.457 144.374 241.748 143.518C242.039 142.654 242.458 141.905 243.006 141.272C243.554 140.63 244.217 140.134 244.996 139.783C245.775 139.423 246.647 139.244 247.614 139.244C248.59 139.244 249.467 139.423 250.246 139.783C251.033 140.134 251.701 140.63 252.249 141.272C252.805 141.905 253.228 142.654 253.519 143.518C253.81 144.374 253.956 145.303 253.956 146.304V146.599C253.956 147.6 253.81 148.529 253.519 149.385C253.228 150.241 252.805 150.989 252.249 151.631C251.701 152.265 251.038 152.761 250.259 153.12C249.489 153.471 248.616 153.647 247.64 153.647C246.665 153.647 245.787 153.471 245.009 153.12C244.23 152.761 243.562 152.265 243.006 151.631C242.458 150.989 242.039 150.241 241.748 149.385C241.457 148.529 241.312 147.6 241.312 146.599ZM243.686 146.304V146.599C243.686 147.292 243.768 147.947 243.93 148.563C244.093 149.171 244.337 149.71 244.662 150.181C244.996 150.651 245.411 151.024 245.907 151.297C246.404 151.563 246.981 151.695 247.64 151.695C248.291 151.695 248.86 151.563 249.347 151.297C249.844 151.024 250.255 150.651 250.58 150.181C250.905 149.71 251.149 149.171 251.312 148.563C251.483 147.947 251.568 147.292 251.568 146.599V146.304C251.568 145.619 251.483 144.973 251.312 144.366C251.149 143.749 250.901 143.206 250.567 142.735C250.242 142.256 249.831 141.879 249.335 141.606C248.847 141.332 248.273 141.195 247.614 141.195C246.964 141.195 246.391 141.332 245.894 141.606C245.407 141.879 244.996 142.256 244.662 142.735C244.337 143.206 244.093 143.749 243.93 144.366C243.768 144.973 243.686 145.619 243.686 146.304ZM265.487 141.683V153.39H263.112V139.5H265.423L265.487 141.683ZM269.826 139.423L269.813 141.631C269.616 141.588 269.428 141.563 269.248 141.554C269.077 141.537 268.88 141.529 268.658 141.529C268.11 141.529 267.627 141.614 267.207 141.785C266.788 141.956 266.433 142.196 266.142 142.504C265.851 142.812 265.62 143.18 265.449 143.608C265.286 144.028 265.179 144.49 265.128 144.995L264.46 145.38C264.46 144.541 264.541 143.754 264.704 143.018C264.875 142.282 265.136 141.631 265.487 141.066C265.838 140.493 266.283 140.048 266.822 139.731C267.37 139.406 268.02 139.244 268.773 139.244C268.944 139.244 269.141 139.265 269.364 139.308C269.586 139.342 269.74 139.381 269.826 139.423ZM283.706 153.647C282.739 153.647 281.862 153.484 281.075 153.159C280.296 152.825 279.624 152.359 279.059 151.76C278.503 151.161 278.075 150.45 277.776 149.629C277.476 148.807 277.326 147.909 277.326 146.933V146.394C277.326 145.264 277.493 144.259 277.827 143.377C278.161 142.487 278.614 141.734 279.188 141.118C279.761 140.502 280.411 140.035 281.139 139.719C281.866 139.402 282.619 139.244 283.398 139.244C284.391 139.244 285.247 139.415 285.966 139.757C286.693 140.099 287.288 140.579 287.75 141.195C288.212 141.802 288.554 142.521 288.777 143.351C288.999 144.173 289.111 145.072 289.111 146.047V147.113H278.738V145.174H286.736V144.995C286.702 144.378 286.573 143.779 286.351 143.197C286.137 142.615 285.794 142.136 285.324 141.76C284.853 141.383 284.211 141.195 283.398 141.195C282.859 141.195 282.363 141.31 281.909 141.541C281.455 141.764 281.066 142.098 280.741 142.543C280.416 142.988 280.163 143.531 279.984 144.173C279.804 144.815 279.714 145.555 279.714 146.394V146.933C279.714 147.592 279.804 148.212 279.984 148.794C280.172 149.368 280.441 149.873 280.792 150.309C281.152 150.745 281.584 151.088 282.089 151.336C282.602 151.584 283.184 151.708 283.835 151.708C284.673 151.708 285.384 151.537 285.966 151.195C286.547 150.852 287.057 150.395 287.493 149.821L288.931 150.964C288.631 151.417 288.251 151.849 287.788 152.26C287.326 152.671 286.757 153.005 286.081 153.262C285.414 153.518 284.622 153.647 283.706 153.647ZM317.513 134.699V153.39H315.074V134.699H317.513ZM323.521 134.699V136.728H309.079V134.699H323.521ZM334.487 133.672V153.39H332.112V133.672H334.487ZM333.922 145.919L332.934 145.88C332.942 144.93 333.084 144.053 333.357 143.249C333.631 142.436 334.016 141.73 334.513 141.131C335.009 140.532 335.6 140.069 336.284 139.744C336.977 139.41 337.743 139.244 338.582 139.244C339.267 139.244 339.883 139.338 340.431 139.526C340.978 139.706 341.445 139.997 341.83 140.399C342.223 140.801 342.523 141.323 342.728 141.965C342.934 142.598 343.036 143.373 343.036 144.289V153.39H340.649V144.263C340.649 143.535 340.542 142.953 340.328 142.517C340.114 142.072 339.801 141.751 339.391 141.554C338.98 141.349 338.475 141.246 337.876 141.246C337.285 141.246 336.746 141.37 336.259 141.618C335.779 141.867 335.364 142.209 335.013 142.645C334.671 143.082 334.401 143.582 334.205 144.147C334.016 144.704 333.922 145.294 333.922 145.919ZM360.96 151.015V143.865C360.96 143.317 360.849 142.842 360.627 142.44C360.413 142.029 360.087 141.713 359.651 141.49C359.215 141.268 358.675 141.156 358.034 141.156C357.434 141.156 356.908 141.259 356.455 141.464C356.01 141.67 355.659 141.939 355.402 142.273C355.154 142.607 355.03 142.966 355.03 143.351H352.655C352.655 142.855 352.783 142.363 353.04 141.875C353.297 141.387 353.665 140.947 354.144 140.553C354.632 140.151 355.214 139.834 355.89 139.603C356.574 139.363 357.336 139.244 358.175 139.244C359.185 139.244 360.075 139.415 360.845 139.757C361.624 140.099 362.231 140.617 362.668 141.31C363.113 141.995 363.335 142.855 363.335 143.891V150.36C363.335 150.823 363.374 151.315 363.451 151.837C363.536 152.359 363.66 152.808 363.823 153.185V153.39H361.345C361.226 153.116 361.131 152.752 361.063 152.299C360.995 151.837 360.96 151.409 360.96 151.015ZM361.371 144.969L361.397 146.638H358.996C358.32 146.638 357.717 146.693 357.186 146.805C356.656 146.907 356.211 147.066 355.851 147.28C355.492 147.493 355.218 147.763 355.03 148.088C354.841 148.405 354.747 148.777 354.747 149.205C354.747 149.642 354.846 150.039 355.043 150.399C355.239 150.758 355.535 151.045 355.928 151.259C356.33 151.464 356.823 151.567 357.405 151.567C358.132 151.567 358.774 151.413 359.33 151.105C359.886 150.797 360.327 150.42 360.652 149.975C360.986 149.53 361.166 149.098 361.191 148.679L362.206 149.821C362.146 150.181 361.983 150.579 361.718 151.015C361.452 151.452 361.097 151.871 360.652 152.273C360.216 152.667 359.694 152.996 359.086 153.262C358.487 153.518 357.811 153.647 357.058 153.647C356.117 153.647 355.291 153.463 354.58 153.095C353.879 152.727 353.331 152.235 352.937 151.618C352.552 150.994 352.36 150.296 352.36 149.526C352.36 148.781 352.505 148.127 352.796 147.562C353.087 146.989 353.506 146.514 354.054 146.137C354.602 145.752 355.261 145.461 356.031 145.264C356.801 145.067 357.661 144.969 358.611 144.969H361.371ZM375.624 142.466V153.39H373.249V139.5H375.495L375.624 142.466ZM375.059 145.919L374.07 145.88C374.079 144.93 374.22 144.053 374.494 143.249C374.768 142.436 375.153 141.73 375.649 141.131C376.146 140.532 376.736 140.069 377.421 139.744C378.114 139.41 378.88 139.244 379.719 139.244C380.403 139.244 381.019 139.338 381.567 139.526C382.115 139.706 382.581 139.997 382.966 140.399C383.36 140.801 383.66 141.323 383.865 141.965C384.07 142.598 384.173 143.373 384.173 144.289V153.39H381.785V144.263C381.785 143.535 381.678 142.953 381.464 142.517C381.251 142.072 380.938 141.751 380.527 141.554C380.117 141.349 379.612 141.246 379.013 141.246C378.422 141.246 377.883 141.37 377.395 141.618C376.916 141.867 376.501 142.209 376.15 142.645C375.808 143.082 375.538 143.582 375.341 144.147C375.153 144.704 375.059 145.294 375.059 145.919ZM407.877 134.699L412.73 144.083L417.595 134.699H420.406L413.962 146.407V153.39H411.484V146.407L405.04 134.699H407.877ZM427.149 146.599V146.304C427.149 145.303 427.294 144.374 427.585 143.518C427.876 142.654 428.296 141.905 428.843 141.272C429.391 140.63 430.054 140.134 430.833 139.783C431.612 139.423 432.485 139.244 433.452 139.244C434.428 139.244 435.305 139.423 436.083 139.783C436.871 140.134 437.538 140.63 438.086 141.272C438.642 141.905 439.066 142.654 439.357 143.518C439.648 144.374 439.793 145.303 439.793 146.304V146.599C439.793 147.6 439.648 148.529 439.357 149.385C439.066 150.241 438.642 150.989 438.086 151.631C437.538 152.265 436.875 152.761 436.096 153.12C435.326 153.471 434.453 153.647 433.478 153.647C432.502 153.647 431.625 153.471 430.846 153.12C430.067 152.761 429.4 152.265 428.843 151.631C428.296 150.989 427.876 150.241 427.585 149.385C427.294 148.529 427.149 147.6 427.149 146.599ZM429.524 146.304V146.599C429.524 147.292 429.605 147.947 429.768 148.563C429.93 149.171 430.174 149.71 430.499 150.181C430.833 150.651 431.248 151.024 431.745 151.297C432.241 151.563 432.819 151.695 433.478 151.695C434.128 151.695 434.697 151.563 435.185 151.297C435.681 151.024 436.092 150.651 436.417 150.181C436.742 149.71 436.986 149.171 437.149 148.563C437.32 147.947 437.406 147.292 437.406 146.599V146.304C437.406 145.619 437.32 144.973 437.149 144.366C436.986 143.749 436.738 143.206 436.404 142.735C436.079 142.256 435.668 141.879 435.172 141.606C434.684 141.332 434.111 141.195 433.452 141.195C432.802 141.195 432.228 141.332 431.732 141.606C431.244 141.879 430.833 142.256 430.499 142.735C430.174 143.206 429.93 143.749 429.768 144.366C429.605 144.973 429.524 145.619 429.524 146.304ZM457.448 150.181V139.5H459.835V153.39H457.563L457.448 150.181ZM457.897 147.254L458.885 147.228C458.885 148.152 458.787 149.008 458.59 149.796C458.402 150.574 458.094 151.25 457.666 151.824C457.238 152.397 456.677 152.846 455.984 153.172C455.291 153.488 454.448 153.647 453.455 153.647C452.779 153.647 452.159 153.548 451.594 153.351C451.038 153.155 450.559 152.851 450.156 152.44C449.754 152.029 449.442 151.494 449.219 150.835C449.005 150.176 448.898 149.385 448.898 148.461V139.5H451.273V148.486C451.273 149.111 451.342 149.629 451.479 150.039C451.624 150.442 451.817 150.763 452.056 151.002C452.304 151.233 452.578 151.396 452.878 151.49C453.186 151.584 453.502 151.631 453.828 151.631C454.838 151.631 455.638 151.439 456.228 151.054C456.819 150.66 457.242 150.134 457.499 149.475C457.764 148.807 457.897 148.067 457.897 147.254ZM472.008 141.683V153.39H469.634V139.5H471.944L472.008 141.683ZM476.347 139.423L476.334 141.631C476.138 141.588 475.949 141.563 475.77 141.554C475.598 141.537 475.402 141.529 475.179 141.529C474.631 141.529 474.148 141.614 473.728 141.785C473.309 141.956 472.954 142.196 472.663 142.504C472.372 142.812 472.141 143.18 471.97 143.608C471.807 144.028 471.7 144.49 471.649 144.995L470.981 145.38C470.981 144.541 471.063 143.754 471.225 143.018C471.396 142.282 471.657 141.631 472.008 141.066C472.359 140.493 472.804 140.048 473.343 139.731C473.891 139.406 474.542 139.244 475.295 139.244C475.466 139.244 475.663 139.265 475.885 139.308C476.108 139.342 476.262 139.381 476.347 139.423ZM504.172 134.699V153.39H501.733V134.699H504.172ZM510.18 134.699V136.728H495.738V134.699H510.18ZM521.146 133.672V153.39H518.771V133.672H521.146ZM520.581 145.919L519.593 145.88C519.601 144.93 519.743 144.053 520.016 143.249C520.29 142.436 520.675 141.73 521.172 141.131C521.668 140.532 522.259 140.069 522.943 139.744C523.636 139.41 524.402 139.244 525.241 139.244C525.926 139.244 526.542 139.338 527.09 139.526C527.637 139.706 528.104 139.997 528.489 140.399C528.882 140.801 529.182 141.323 529.387 141.965C529.593 142.598 529.695 143.373 529.695 144.289V153.39H527.308V144.263C527.308 143.535 527.201 142.953 526.987 142.517C526.773 142.072 526.46 141.751 526.05 141.554C525.639 141.349 525.134 141.246 524.535 141.246C523.944 141.246 523.405 141.37 522.918 141.618C522.438 141.867 522.023 142.209 521.672 142.645C521.33 143.082 521.06 143.582 520.864 144.147C520.675 144.704 520.581 145.294 520.581 145.919ZM538.8 146.599V146.304C538.8 145.303 538.946 144.374 539.237 143.518C539.528 142.654 539.947 141.905 540.495 141.272C541.043 140.63 541.706 140.134 542.485 139.783C543.263 139.423 544.136 139.244 545.103 139.244C546.079 139.244 546.956 139.423 547.735 139.783C548.522 140.134 549.19 140.63 549.737 141.272C550.294 141.905 550.717 142.654 551.008 143.518C551.299 144.374 551.445 145.303 551.445 146.304V146.599C551.445 147.6 551.299 148.529 551.008 149.385C550.717 150.241 550.294 150.989 549.737 151.631C549.19 152.265 548.526 152.761 547.748 153.12C546.977 153.471 546.105 153.647 545.129 153.647C544.153 153.647 543.276 153.471 542.497 153.12C541.719 152.761 541.051 152.265 540.495 151.631C539.947 150.989 539.528 150.241 539.237 149.385C538.946 148.529 538.8 147.6 538.8 146.599ZM541.175 146.304V146.599C541.175 147.292 541.257 147.947 541.419 148.563C541.582 149.171 541.826 149.71 542.151 150.181C542.485 150.651 542.9 151.024 543.396 151.297C543.892 151.563 544.47 151.695 545.129 151.695C545.779 151.695 546.348 151.563 546.836 151.297C547.333 151.024 547.743 150.651 548.069 150.181C548.394 149.71 548.638 149.171 548.8 148.563C548.971 147.947 549.057 147.292 549.057 146.599V146.304C549.057 145.619 548.971 144.973 548.8 144.366C548.638 143.749 548.39 143.206 548.056 142.735C547.731 142.256 547.32 141.879 546.823 141.606C546.336 141.332 545.762 141.195 545.103 141.195C544.453 141.195 543.88 141.332 543.383 141.606C542.895 141.879 542.485 142.256 542.151 142.735C541.826 143.206 541.582 143.749 541.419 144.366C541.257 144.973 541.175 145.619 541.175 146.304ZM569.099 150.181V139.5H571.487V153.39H569.215L569.099 150.181ZM569.548 147.254L570.537 147.228C570.537 148.152 570.438 149.008 570.242 149.796C570.053 150.574 569.745 151.25 569.317 151.824C568.889 152.397 568.329 152.846 567.636 153.172C566.942 153.488 566.1 153.647 565.107 153.647C564.431 153.647 563.81 153.548 563.245 153.351C562.689 153.155 562.21 152.851 561.808 152.44C561.405 152.029 561.093 151.494 560.871 150.835C560.657 150.176 560.55 149.385 560.55 148.461V139.5H562.925V148.486C562.925 149.111 562.993 149.629 563.13 150.039C563.275 150.442 563.468 150.763 563.708 151.002C563.956 151.233 564.23 151.396 564.529 151.49C564.837 151.584 565.154 151.631 565.479 151.631C566.489 151.631 567.289 151.439 567.88 151.054C568.47 150.66 568.894 150.134 569.15 149.475C569.416 148.807 569.548 148.067 569.548 147.254ZM590.284 139.5H592.44V153.095C592.44 154.318 592.192 155.362 591.696 156.227C591.199 157.091 590.506 157.746 589.616 158.191C588.735 158.644 587.716 158.871 586.561 158.871C586.082 158.871 585.517 158.794 584.866 158.64C584.225 158.495 583.591 158.242 582.967 157.883C582.35 157.532 581.833 157.057 581.413 156.458L582.658 155.046C583.24 155.748 583.848 156.235 584.481 156.509C585.123 156.783 585.756 156.92 586.381 156.92C587.134 156.92 587.785 156.779 588.332 156.496C588.88 156.214 589.304 155.795 589.603 155.238C589.911 154.691 590.065 154.015 590.065 153.21V142.556L590.284 139.5ZM580.72 146.599V146.33C580.72 145.268 580.844 144.306 581.092 143.441C581.349 142.568 581.713 141.82 582.184 141.195C582.663 140.57 583.24 140.091 583.916 139.757C584.593 139.415 585.354 139.244 586.201 139.244C587.074 139.244 587.836 139.398 588.486 139.706C589.145 140.005 589.702 140.446 590.155 141.028C590.617 141.601 590.981 142.295 591.246 143.108C591.512 143.921 591.696 144.841 591.798 145.867V147.048C591.704 148.067 591.52 148.983 591.246 149.796C590.981 150.609 590.617 151.302 590.155 151.875C589.702 152.449 589.145 152.889 588.486 153.197C587.827 153.497 587.057 153.647 586.176 153.647C585.346 153.647 584.593 153.471 583.916 153.12C583.249 152.769 582.676 152.277 582.196 151.644C581.717 151.011 581.349 150.266 581.092 149.41C580.844 148.546 580.72 147.609 580.72 146.599ZM583.095 146.33V146.599C583.095 147.292 583.163 147.943 583.3 148.55C583.446 149.158 583.664 149.693 583.955 150.155C584.255 150.617 584.635 150.981 585.097 151.246C585.56 151.503 586.112 151.631 586.753 151.631C587.541 151.631 588.191 151.464 588.705 151.131C589.218 150.797 589.625 150.356 589.924 149.808C590.232 149.261 590.472 148.666 590.643 148.024V144.93C590.549 144.46 590.403 144.006 590.207 143.57C590.018 143.125 589.77 142.731 589.462 142.389C589.163 142.038 588.79 141.76 588.345 141.554C587.9 141.349 587.378 141.246 586.779 141.246C586.129 141.246 585.568 141.383 585.097 141.657C584.635 141.922 584.255 142.29 583.955 142.761C583.664 143.223 583.446 143.762 583.3 144.378C583.163 144.986 583.095 145.636 583.095 146.33ZM604.6 133.672V153.39H602.226V133.672H604.6ZM604.036 145.919L603.047 145.88C603.056 144.93 603.197 144.053 603.471 143.249C603.745 142.436 604.13 141.73 604.626 141.131C605.122 140.532 605.713 140.069 606.397 139.744C607.091 139.41 607.857 139.244 608.695 139.244C609.38 139.244 609.996 139.338 610.544 139.526C611.092 139.706 611.558 139.997 611.943 140.399C612.337 140.801 612.636 141.323 612.842 141.965C613.047 142.598 613.15 143.373 613.15 144.289V153.39H610.762V144.263C610.762 143.535 610.655 142.953 610.441 142.517C610.227 142.072 609.915 141.751 609.504 141.554C609.093 141.349 608.588 141.246 607.989 141.246C607.399 141.246 606.86 141.37 606.372 141.618C605.893 141.867 605.478 142.209 605.127 142.645C604.784 143.082 604.515 143.582 604.318 144.147C604.13 144.704 604.036 145.294 604.036 145.919ZM628.699 139.5V141.323H621.189V139.5H628.699ZM623.731 136.124H626.106V149.95C626.106 150.42 626.179 150.775 626.324 151.015C626.469 151.255 626.658 151.413 626.889 151.49C627.12 151.567 627.368 151.606 627.633 151.606C627.83 151.606 628.036 151.588 628.25 151.554C628.472 151.511 628.639 151.477 628.75 151.452L628.763 153.39C628.575 153.45 628.327 153.505 628.018 153.557C627.719 153.617 627.355 153.647 626.927 153.647C626.345 153.647 625.811 153.531 625.323 153.3C624.835 153.069 624.446 152.684 624.155 152.145C623.872 151.597 623.731 150.861 623.731 149.937V136.124ZM645.75 149.706C645.75 149.363 645.673 149.047 645.519 148.756C645.373 148.456 645.069 148.187 644.607 147.947C644.154 147.699 643.469 147.485 642.553 147.305C641.783 147.143 641.086 146.95 640.461 146.728C639.845 146.505 639.319 146.235 638.882 145.919C638.454 145.602 638.125 145.23 637.894 144.802C637.663 144.374 637.547 143.873 637.547 143.3C637.547 142.752 637.667 142.235 637.906 141.747C638.155 141.259 638.501 140.827 638.946 140.45C639.4 140.074 639.943 139.778 640.577 139.565C641.21 139.351 641.916 139.244 642.695 139.244C643.807 139.244 644.757 139.44 645.544 139.834C646.332 140.228 646.935 140.754 647.354 141.413C647.774 142.063 647.983 142.787 647.983 143.582H645.609C645.609 143.197 645.493 142.825 645.262 142.466C645.04 142.098 644.71 141.794 644.274 141.554C643.846 141.315 643.319 141.195 642.695 141.195C642.036 141.195 641.501 141.298 641.09 141.503C640.688 141.7 640.393 141.952 640.204 142.26C640.025 142.568 639.935 142.894 639.935 143.236C639.935 143.493 639.977 143.724 640.063 143.929C640.157 144.126 640.32 144.31 640.551 144.481C640.782 144.644 641.107 144.798 641.526 144.943C641.946 145.089 642.481 145.234 643.131 145.38C644.269 145.636 645.206 145.944 645.942 146.304C646.678 146.663 647.226 147.104 647.586 147.626C647.945 148.148 648.125 148.781 648.125 149.526C648.125 150.134 647.996 150.69 647.74 151.195C647.491 151.7 647.128 152.136 646.648 152.504C646.178 152.864 645.613 153.146 644.954 153.351C644.304 153.548 643.572 153.647 642.759 153.647C641.535 153.647 640.5 153.428 639.652 152.992C638.805 152.555 638.163 151.991 637.727 151.297C637.29 150.604 637.072 149.873 637.072 149.102H639.46C639.494 149.753 639.682 150.271 640.025 150.656C640.367 151.032 640.786 151.302 641.283 151.464C641.779 151.618 642.271 151.695 642.759 151.695C643.409 151.695 643.953 151.61 644.389 151.439C644.834 151.268 645.172 151.032 645.403 150.733C645.634 150.433 645.75 150.091 645.75 149.706Z" fill="#313636"/>
<path d="M658.5 67C668.717 67 677 58.7173 677 48.5C677 38.2827 668.717 30 658.5 30C648.283 30 640 38.2827 640 48.5C640 58.7173 648.283 67 658.5 67Z" stroke="#313636" stroke-width="4.18079"/>
<path d="M657.496 46.9961C658.441 46.9961 659.129 46.8041 659.541 46.4374C659.954 46.0883 660.177 45.4947 660.177 44.6566C660.177 43.8361 659.954 43.2599 659.541 42.8933C659.129 42.5441 658.441 42.3695 657.496 42.3695H655.571V46.9961H657.496ZM655.571 50.1911V57H651V39H657.977C660.315 39 662.016 39.4016 663.099 40.2047C664.199 40.9903 664.731 42.2473 664.731 43.9758C664.731 45.1629 664.457 46.1406 663.889 46.9088C663.322 47.6596 662.48 48.2357 661.329 48.5849C661.965 48.742 662.515 49.0737 663.013 49.58C663.511 50.0863 664.01 50.8545 664.508 51.902L667 57H662.136L659.971 52.5306C659.541 51.6402 659.095 51.0116 658.648 50.6974C658.201 50.3657 657.599 50.1911 656.86 50.1911H655.571Z" fill="#313636"/>
<defs>
<filter id="filter0_d_4_40" x="0" y="58.5416" width="110" height="94.8982" filterUnits="userSpaceOnUse" color-interpolation-filters="sRGB">
<feFlood flood-opacity="0" result="BackgroundImageFix"/>
<feColorMatrix in="SourceAlpha" type="matrix" values="0 0 0 0 0 0 0 0 0 0 0 0 0 0 0 0 0 0 127 0" result="hardAlpha"/>
<feOffset/>
<feGaussianBlur stdDeviation="5.5"/>
<feComposite in2="hardAlpha" operator="out"/>
<feColorMatrix type="matrix" values="0 0 0 0 0 0 0 0 0 0 0 0 0 0 0 0 0 0 0.25 0"/>
<feBlend mode="normal" in2="BackgroundImageFix" result="effect1_dropShadow_4_40"/>
<feBlend mode="normal" in="SourceGraphic" in2="effect1_dropShadow_4_40" result="shape"/>
</filter>
<linearGradient id="paint0_linear_4_40" x1="40" y1="576.5" x2="94.6636" y2="27.1133" gradientUnits="userSpaceOnUse">
<stop stop-color="#5D666A"/>
<stop offset="1" stop-color="#313637"/>
</linearGradient>
<linearGradient id="paint1_linear_4_40" x1="14.7084" y1="33.9453" x2="77.391" y2="169.172" gradientUnits="userSpaceOnUse">
<stop stop-color="#5D666A"/>
<stop offset="1" stop-color="#202222"/>
</linearGradient>
<linearGradient id="paint2_linear_4_40" x1="102.763" y1="160.775" x2="120.473" y2="19.5264" gradientUnits="userSpaceOnUse">
<stop stop-color="#2279B7"/>
<stop offset="1" stop-color="#45C1ED"/>
</linearGradient>
<linearGradient id="paint3_linear_4_40" x1="70.5" y1="138" x2="55" y2="79" gradientUnits="userSpaceOnUse">
<stop stop-color="#2279B7"/>
<stop offset="1" stop-color="#45C1ED"/>
</linearGradient>
<linearGradient id="paint4_linear_4_40" x1="158" y1="111.5" x2="156.856" y2="98.0548" gradientUnits="userSpaceOnUse">
<stop stop-color="#2276B6"/>
<stop offset="1" stop-color="#34B4E3"/>
</linearGradient>
<linearGradient id="paint5_linear_4_40" x1="142.5" y1="94.5" x2="148.719" y2="44.8435" gradientUnits="userSpaceOnUse">
<stop stop-color="#2279B7"/>
<stop offset="1" stop-color="#45C1ED"/>
</linearGradient>
<clipPath id="clip0_4_40">
<rect width="176.394" height="194.913" fill="white" transform="translate(8 3)"/>
</clipPath>
</defs>
</svg>
